# xmcd
#
# Track frame offsets: 
#        150
#        12107
#        22845
#        37367
#        50262
#        63020
#        79085
#        91672
#        105132
#        119457
#
# Disc length: 1811 seconds
#
# Revision: 2
# Processed by: cddbd v1.4PL0 Copyright (c) Steve Scherf et al.
# Submitted via: ExactAudioCopy v0.90a11
#
DISCID=6707110a
DTITLE=John Schneider - Too Good To Stop Now
DYEAR=1900
DGENRE=
TTITLE0=I've Been Around Enough To Know
TTITLE1=What'll You Do About Me
TTITLE2=Country Girls
TTITLE3=Low Class Reunion
TTITLE4=Too Good To Stop Now
TTITLE5=The Time Of My Life
TTITLE6=Trouble
TTITLE7=The Party Of The First Part
TTITLE8=I'm Your Man
TTITLE9=Hollywood Heroes
EXTD=Submitted by WinSkol\n\nCountry\n
EXTT0=
EXTT1=
EXTT2=
EXTT3=
EXTT4=
EXTT5=
EXTT6=
EXTT7=
EXTT8=
EXTT9=
PLAYORDER=
